# xmcd CD database file
#
# Track frame offsets:
#	150
#	27955
#	48782
#	71230
#
# Disc length: 1196 seconds
#
# Revision: 1
# Processed by: cddbd v1.5.2PL0 Copyright (c) Steve Scherf et al.
# Submitted via: CDex 1.70beta2
#
DISCID=2f04aa04
DTITLE=Aerosmith - Hole In My Soul
DYEAR=1997
DGENRE=Rock
TTITLE0=Hole In My Soul
TTITLE1=Falling In Love - BUTCHER MIX
TTITLE2=Falling In Love - (Is Hard On Knees) - MOBY FLAWED MIX
TTITLE3=Nine Lives
EXTD=YEAR: 1997
EXTT0=
EXTT1=
EXTT2=
EXTT3=
PLAYORDER=
